<svg xmlns="http://www.w3.org/2000/svg" xmlns:xlink="http://www.w3.org/1999/xlink" contentStyleType="text/css" data-diagram-type="CLASS" height="523px" preserveAspectRatio="none" style="width:610px;height:523px;background:#FFFFFF;" version="1.1" viewBox="0 0 610 523" width="610px" zoomAndPan="magnify"><defs/><g><!--cluster Presentation--><g class="cluster" data-entity="Presentation" data-source-line="5" data-uid="ent0003" id="cluster_Presentation"><path d="M227.5,52.3 L330.1709,52.3 A3.75,3.75 0 0 1 332.6709,54.8 L339.6709,74.5969 L358.5,74.5969 A2.5,2.5 0 0 1 361,77.0969 L361,121.1 A2.5,2.5 0 0 1 358.5,123.6 L227.5,123.6 A2.5,2.5 0 0 1 225,121.1 L225,54.8 A2.5,2.5 0 0 1 227.5,52.3" fill="none" style="stroke:#000000;stroke-width:1.5;"/><line style="stroke:#000000;stroke-width:1.5;" x1="225" x2="339.6709" y1="74.5969" y2="74.5969"/><text fill="#000000" font-family="sans-serif" font-size="14" font-weight="bold" lengthAdjust="spacing" textLength="101.6709" x="229" y="67.2951">Presentation</text></g><!--cluster GameContext--><g class="cluster" data-entity="GameContext" data-source-line="9" data-uid="ent0005" id="cluster_GameContext"><path d="M8.5,147.6 L116.291,147.6 A3.75,3.75 0 0 1 118.791,150.1 L125.791,169.8969 L328.5,169.8969 A2.5,2.5 0 0 1 331,172.3969 L331,513.55 A2.5,2.5 0 0 1 328.5,516.05 L8.5,516.05 A2.5,2.5 0 0 1 6,513.55 L6,150.1 A2.5,2.5 0 0 1 8.5,147.6" fill="none" style="stroke:#000000;stroke-width:1.5;"/><line style="stroke:#000000;stroke-width:1.5;" x1="6" x2="125.791" y1="169.8969" y2="169.8969"/><text fill="#000000" font-family="sans-serif" font-size="14" font-weight="bold" lengthAdjust="spacing" textLength="106.791" x="10" y="162.5951">GameContext</text></g><!--cluster UseCases--><g class="cluster" data-entity="UseCases" data-source-line="10" data-uid="ent0006" id="cluster_UseCases"><path d="M32.5,190.6 L108.5791,190.6 A3.75,3.75 0 0 1 111.0791,193.1 L118.0791,212.8969 L304.5,212.8969 A2.5,2.5 0 0 1 307,215.3969 L307,259.39 A2.5,2.5 0 0 1 304.5,261.89 L32.5,261.89 A2.5,2.5 0 0 1 30,259.39 L30,193.1 A2.5,2.5 0 0 1 32.5,190.6" fill="none" style="stroke:#000000;stroke-width:1.5;"/><line style="stroke:#000000;stroke-width:1.5;" x1="30" x2="118.0791" y1="212.8969" y2="212.8969"/><text fill="#000000" font-family="sans-serif" font-size="14" font-weight="bold" lengthAdjust="spacing" textLength="75.0791" x="34" y="205.5951">UseCases</text></g><!--cluster Domain--><g class="cluster" data-entity="Domain" data-source-line="14" data-uid="ent0009" id="cluster_Domain"><path d="M50.5,285.89 L111.54,285.89 A3.75,3.75 0 0 1 114.04,288.39 L121.04,308.1869 L165.5,308.1869 A2.5,2.5 0 0 1 168,310.6869 L168,489.55 A2.5,2.5 0 0 1 165.5,492.05 L50.5,492.05 A2.5,2.5 0 0 1 48,489.55 L48,288.39 A2.5,2.5 0 0 1 50.5,285.89" fill="none" style="stroke:#000000;stroke-width:1.5;"/><line style="stroke:#000000;stroke-width:1.5;" x1="48" x2="121.04" y1="308.1869" y2="308.1869"/><text fill="#000000" font-family="sans-serif" font-size="14" font-weight="bold" lengthAdjust="spacing" textLength="60.04" x="52" y="300.8851">Domain</text></g><!--cluster SolverContext--><g class="cluster" data-entity="SolverContext" data-source-line="22" data-uid="ent0012" id="cluster_SolverContext"><path d="M357.5,147.6 L470.2949,147.6 A3.75,3.75 0 0 1 472.7949,150.1 L479.7949,169.8969 L600.5,169.8969 A2.5,2.5 0 0 1 603,172.3969 L603,412.96 A2.5,2.5 0 0 1 600.5,415.46 L357.5,415.46 A2.5,2.5 0 0 1 355,412.96 L355,150.1 A2.5,2.5 0 0 1 357.5,147.6" fill="none" style="stroke:#000000;stroke-width:1.5;"/><line style="stroke:#000000;stroke-width:1.5;" x1="355" x2="479.7949" y1="169.8969" y2="169.8969"/><text fill="#000000" font-family="sans-serif" font-size="14" font-weight="bold" lengthAdjust="spacing" textLength="111.7949" x="359" y="162.5951">SolverContext</text></g><!--cluster UseCases--><g class="cluster" data-entity="UseCases" data-source-line="23" data-uid="ent0013" id="cluster_UseCases"><path d="M381.5,190.6 L457.5791,190.6 A3.75,3.75 0 0 1 460.0791,193.1 L467.0791,212.8969 L576.5,212.8969 A2.5,2.5 0 0 1 579,215.3969 L579,259.39 A2.5,2.5 0 0 1 576.5,261.89 L381.5,261.89 A2.5,2.5 0 0 1 379,259.39 L379,193.1 A2.5,2.5 0 0 1 381.5,190.6" fill="none" style="stroke:#000000;stroke-width:1.5;"/><line style="stroke:#000000;stroke-width:1.5;" x1="379" x2="467.0791" y1="212.8969" y2="212.8969"/><text fill="#000000" font-family="sans-serif" font-size="14" font-weight="bold" lengthAdjust="spacing" textLength="75.0791" x="383" y="205.5951">UseCases</text></g><!--cluster Domain--><g class="cluster" data-entity="Domain" data-source-line="27" data-uid="ent0015" id="cluster_Domain"><path d="M421.5,306.19 L482.54,306.19 A3.75,3.75 0 0 1 485.04,308.69 L492.04,328.4869 L536.5,328.4869 A2.5,2.5 0 0 1 539,330.9869 L539,388.96 A2.5,2.5 0 0 1 536.5,391.46 L421.5,391.46 A2.5,2.5 0 0 1 419,388.96 L419,308.69 A2.5,2.5 0 0 1 421.5,306.19" fill="none" style="stroke:#000000;stroke-width:1.5;"/><line style="stroke:#000000;stroke-width:1.5;" x1="419" x2="492.04" y1="328.4869" y2="328.4869"/><text fill="#000000" font-family="sans-serif" font-size="14" font-weight="bold" lengthAdjust="spacing" textLength="60.04" x="423" y="321.1851">Domain</text></g><g class="entity" data-entity="CLIController" data-source-line="6" data-uid="ent0004" id="entity_CLIController"><rect fill="#F1F1F1" height="20.2969" rx="2.5" ry="2.5" style="stroke:#181818;stroke-width:0.5;" width="104.877" x="240.56" y="87.3"/><text fill="#000000" font-family="sans-serif" font-size="14" lengthAdjust="spacing" textLength="90.877" x="247.56" y="102.2951">CLIController</text></g><g class="entity" data-entity="GameInteractor" data-source-line="11" data-uid="ent0007" id="entity_GameInteractor"><rect fill="#F1F1F1" height="20.2969" rx="2.5" ry="2.5" style="stroke:#181818;stroke-width:0.5;" width="124.626" x="45.69" y="225.6"/><text fill="#000000" font-family="sans-serif" font-size="14" lengthAdjust="spacing" textLength="110.626" x="52.69" y="240.5951">GameInteractor</text></g><g class="entity" data-entity="GameDTO" data-source-line="12" data-uid="ent0008" id="entity_GameDTO"><rect fill="#F1F1F1" height="20.2969" rx="2.5" ry="2.5" style="stroke:#181818;stroke-width:0.5;" width="86.0303" x="204.98" y="225.6"/><text fill="#000000" font-family="sans-serif" font-size="14" lengthAdjust="spacing" textLength="72.0303" x="211.98" y="240.5951">GameDTO</text></g><g class="entity" data-entity="Game" data-source-line="15" data-uid="ent0010" id="entity_Game"><rect fill="#F1F1F1" height="74.8594" rx="2.5" ry="2.5" style="stroke:#181818;stroke-width:0.5;" width="87.502" x="64.25" y="320.89"/><text fill="#000000" font-family="sans-serif" font-size="12" font-style="italic" lengthAdjust="spacing" textLength="77.502" x="69.25" y="332.0287">&#171;Aggregate&#187;</text><text fill="#000000" font-family="sans-serif" font-size="14" lengthAdjust="spacing" textLength="41.6787" x="87.1616" y="349.8539">Game</text><line style="stroke:#181818;stroke-width:0.5;" x1="65.25" x2="150.752" y1="355.1556" y2="355.1556"/><text fill="#000000" font-family="sans-serif" font-size="14" lengthAdjust="spacing" textLength="35.4648" x="70.25" y="372.1507">state</text><text fill="#000000" font-family="sans-serif" font-size="14" lengthAdjust="spacing" textLength="73.3086" x="70.25" y="388.4476">bombField</text></g><g class="entity" data-entity="BombField" data-source-line="19" data-uid="ent0011" id="entity_BombField"><rect fill="#F1F1F1" height="20.2969" rx="2.5" ry="2.5" style="stroke:#181818;stroke-width:0.5;" width="88.0264" x="63.99" y="455.75"/><text fill="#000000" font-family="sans-serif" font-size="14" lengthAdjust="spacing" textLength="74.0264" x="70.99" y="470.7451">BombField</text></g><g class="entity" data-entity="GameSolverInteractor" data-source-line="24" data-uid="ent0014" id="entity_GameSolverInteractor"><rect fill="#F1F1F1" height="20.2969" rx="2.5" ry="2.5" style="stroke:#181818;stroke-width:0.5;" width="168.6221" x="394.69" y="225.6"/><text fill="#000000" font-family="sans-serif" font-size="14" lengthAdjust="spacing" textLength="154.6221" x="401.69" y="240.5951">GameSolverInteractor</text></g><g class="entity" data-entity="Solver" data-source-line="28" data-uid="ent0016" id="entity_Solver"><rect fill="#F1F1F1" height="34.2656" rx="2.5" ry="2.5" style="stroke:#181818;stroke-width:0.5;" width="87.502" x="435.25" y="341.19"/><text fill="#000000" font-family="sans-serif" font-size="12" font-style="italic" lengthAdjust="spacing" textLength="77.502" x="440.25" y="352.3287">&#171;Aggregate&#187;</text><text fill="#000000" font-family="sans-serif" font-size="14" lengthAdjust="spacing" textLength="43.9961" x="457.0029" y="370.1539">Solver</text></g><g class="entity" data-entity="main" data-source-line="3" data-uid="ent0002" id="entity_main"><rect fill="#F1F1F1" height="20.2969" rx="2.5" ry="2.5" style="stroke:#181818;stroke-width:0.5;" width="48.9795" x="268.51" y="7"/><text fill="#000000" font-family="sans-serif" font-size="14" lengthAdjust="spacing" textLength="34.9795" x="275.51" y="21.9951">main</text></g><!--link main to CLIController--><g class="link" data-entity-1="main" data-entity-2="CLIController" data-source-line="31" data-uid="lnk17" id="link_main_CLIController"><path codeLine="31" d="M293,27.75 C293,42.94 293,66.32 293,81.26" fill="none" id="main-to-CLIController" style="stroke:#181818;stroke-width:1;"/><polygon fill="#181818" points="293,87.26,297,78.26,293,82.26,289,78.26,293,87.26" style="stroke:#181818;stroke-width:1;"/></g><!--link CLIController to GameInteractor--><g class="link" data-entity-1="CLIController" data-entity-2="GameInteractor" data-source-line="32" data-uid="lnk18" id="link_CLIController_GameInteractor"><path codeLine="32" d="M255.13,108.03 C233.8,114.62 207.43,124.89 187,139.6 C153.02,164.06 128.0866,201.3329 116.6466,220.1529" fill="none" id="CLIController-to-GameInteractor" style="stroke:#181818;stroke-width:1;"/><polygon fill="#181818" points="113.53,225.28,121.6229,219.6671,116.1271,221.0074,114.7868,215.5117,113.53,225.28" style="stroke:#181818;stroke-width:1;"/></g><!--link CLIController to GameSolverInteractor--><g class="link" data-entity-1="CLIController" data-entity-2="GameSolverInteractor" data-source-line="33" data-uid="lnk19" id="link_CLIController_GameSolverInteractor"><path codeLine="33" d="M306.08,108.03 C340.31,133.12 427.4003,196.9336 461.3403,221.8036" fill="none" id="CLIController-to-GameSolverInteractor" style="stroke:#181818;stroke-width:1;"/><polygon fill="#181818" points="466.18,225.35,461.2846,216.8039,462.1469,222.3947,456.5561,223.2569,466.18,225.35" style="stroke:#181818;stroke-width:1;"/></g><!--link GameInteractor to Game--><g class="link" data-entity-1="GameInteractor" data-entity-2="Game" data-source-line="34" data-uid="lnk20" id="link_GameInteractor_Game"><path codeLine="34" d="M108,246.21 C108,262.03 108,288.67 108,314.5" fill="none" id="GameInteractor-to-Game" style="stroke:#181818;stroke-width:1;"/><polygon fill="#181818" points="108,320.5,112,311.5,108,315.5,104,311.5,108,320.5" style="stroke:#181818;stroke-width:1;"/></g><!--link GameInteractor to GameDTO--><g class="link" data-entity-1="GameInteractor" data-entity-2="GameDTO" data-source-line="35" data-uid="lnk21" id="link_GameInteractor_GameDTO"><path codeLine="35" d="M170.62,235.75 C182,235.75 187.39,235.75 198.77,235.75" fill="none" id="GameInteractor-to-GameDTO" style="stroke:#181818;stroke-width:1;stroke-dasharray:7.0,7.0;"/><polygon fill="#181818" points="204.77,235.75,195.77,231.75,199.77,235.75,195.77,239.75,204.77,235.75" style="stroke:#181818;stroke-width:1;"/></g><!--link Game to BombField--><g class="link" data-entity-1="Game" data-entity-2="BombField" data-source-line="36" data-uid="lnk22" id="link_Game_BombField"><path codeLine="36" d="M108,408.25 C108,429.42 108,436.34 108,449.56" fill="none" id="Game-BombField" style="stroke:#181818;stroke-width:1;"/><polygon fill="#181818" points="108,396.25,104,402.25,108,408.25,112,402.25,108,396.25" style="stroke:#181818;stroke-width:1;"/><polygon fill="#181818" points="108,455.56,112,446.56,108,450.56,104,446.56,108,455.56" style="stroke:#181818;stroke-width:1;"/></g><!--link GameSolverInteractor to Solver--><g class="link" data-entity-1="GameSolverInteractor" data-entity-2="Solver" data-source-line="37" data-uid="lnk23" id="link_GameSolverInteractor_Solver"><path codeLine="37" d="M479,246.21 C479,266.64 479,309.1 479,334.75" fill="none" id="GameSolverInteractor-to-Solver" style="stroke:#181818;stroke-width:1;"/><polygon fill="#181818" points="479,340.75,483,331.75,479,335.75,475,331.75,479,340.75" style="stroke:#181818;stroke-width:1;"/></g><!--SRC=[bL512i8m4Bpd5JaB-W8fQ8iY20hg0z9sgDMcaII88lsxIQEjYJteNa9cPuQTtMEPWu9Vz9roy1HI4IBI4p9DEIjhGYuiExC2T2kXK6kcIr4_23NreiNhLIngBKLLGPAcLomPX-tWfftWtJWen4n1EVJ3oYfMHY1PfeKSwYRxJGitdc4YxAo3TjFfh2Wa2gOHHJt3bZ9Xu26fuEcYH9LtQ1DwpZrAO_A-XzY9wWhvVs2d2sARDVuGq4czYDrOLa37uoYuZ_Th-y7IXmbVG_ggZXVYawWxcttfo1Bx7GvPjruEV080]--></g></svg>